<svg width="161" height="54" viewBox="0 0 161 54" fill="none" xmlns="http://www.w3.org/2000/svg">
<g clip-path="url(#clip0_2086_31)">
<path d="M98.1905 25.6703H91.6597V35.8632C91.6597 36.2967 91.4445 36.5111 91.0094 36.5111H87.7623C87.5242 36.5111 87.3593 36.4655 87.2769 36.3651C87.1899 36.2693 87.1441 36.1005 87.1441 35.8632V25.6703H81.4239V35.8632C81.4239 36.2967 81.2041 36.5111 80.7736 36.5111H77.5265C77.0914 36.5111 76.8762 36.2967 76.8762 35.8632V25.6703H69.6309C69.347 25.6703 69.7042 25.6065 69.6309 25.4742C69.5531 25.3464 69.6309 25.1639 69.6309 24.9266V22.6955C69.6309 22.4583 69.5531 22.2803 69.6309 22.1617C69.7042 22.0431 69.347 21.9838 69.6309 21.9838H98.1951C98.6485 21.9838 98.8729 22.221 98.8729 22.6955V24.9266C98.8729 25.424 98.6485 25.6703 98.1951 25.6703M84.2542 20.072C82.7154 20.072 81.2957 19.9032 79.995 19.5565C78.6944 19.2097 77.5677 18.7306 76.6151 18.1147C75.658 17.4987 74.9114 16.7596 74.371 15.8972C73.826 15.0395 73.5604 14.0768 73.5604 13.0182C73.5604 11.9597 73.8306 10.997 74.371 10.121C74.9114 9.24499 75.658 8.50129 76.6151 7.88533C77.5677 7.26938 78.6944 6.79031 79.995 6.44355C81.2957 6.10136 82.7108 5.92798 84.2542 5.92798C85.7976 5.92798 87.1807 6.10136 88.4768 6.44355C89.7729 6.79031 90.9041 7.26938 91.8567 7.88533C92.8093 8.50129 93.5558 9.24499 94.0962 10.121C94.6412 10.9924 94.9114 11.9597 94.9114 13.0182C94.9114 14.0768 94.6412 15.0395 94.0962 15.8972C93.5558 16.7596 92.8139 17.4987 91.8704 18.1147C90.927 18.7306 89.8003 19.2097 88.4905 19.5565C87.1853 19.9032 85.7701 20.072 84.2542 20.072ZM84.2542 9.62369C83.3657 9.62369 82.546 9.71494 81.7995 9.89744C81.0484 10.0799 80.4118 10.3309 79.8805 10.6411C79.3538 10.9514 78.9371 11.321 78.6302 11.7407C78.328 12.1605 78.1768 12.5985 78.1768 13.0502C78.1768 13.5019 78.328 13.9034 78.6302 14.3095C78.9371 14.7201 79.3538 15.076 79.8805 15.3771C80.4118 15.6782 81.0484 15.9246 81.7995 16.1071C82.546 16.2896 83.3657 16.3809 84.2542 16.3809C85.1427 16.3809 85.9579 16.2896 86.7044 16.1071C87.4555 15.9246 88.0921 15.6828 88.6233 15.3771C89.1546 15.076 89.5668 14.7201 89.8599 14.3095C90.153 13.9034 90.2995 13.4836 90.2995 13.0502C90.2995 12.6167 90.153 12.1605 89.8599 11.7407C89.5668 11.321 89.1546 10.9514 88.6233 10.6411C88.0967 10.3309 87.4601 10.0799 86.7227 9.89744C85.9854 9.71494 85.1656 9.62369 84.2542 9.62369Z" fill="white"/>
<path d="M104.566 23.5705C104.153 23.8032 103.879 23.931 103.737 23.9401C103.595 23.9538 103.439 23.8397 103.27 23.6024L101.676 21.5949C101.415 21.2481 101.323 21.0154 101.396 20.8968C101.474 20.7782 101.639 20.6231 101.9 20.4269C103.073 19.6512 104.076 18.757 104.918 17.7395C105.766 16.7266 106.466 15.6407 107.016 14.4864C107.57 13.332 107.973 12.1229 108.234 10.8591C108.491 9.59983 108.619 8.33143 108.619 7.05846C108.619 6.69345 108.669 6.47445 108.765 6.39688C108.862 6.32388 109.063 6.29651 109.37 6.31476L112.457 6.44251C112.695 6.46532 112.855 6.51551 112.942 6.58851C113.025 6.66608 113.07 6.82121 113.07 7.05846C113.07 8.97932 112.855 10.8272 112.425 12.5929C112.75 13.3046 113.167 13.9936 113.675 14.6643C114.179 15.3304 114.728 15.9464 115.314 16.5076C115.901 17.0688 116.501 17.5752 117.119 18.0269C117.737 18.4786 118.305 18.8482 118.827 19.1265C119.125 19.3227 119.276 19.4961 119.267 19.6467C119.258 19.7972 119.161 20.0025 118.987 20.2626L117.751 22.2656C117.581 22.5257 117.426 22.6671 117.293 22.6899C117.169 22.7082 116.949 22.6443 116.647 22.4937C116.189 22.2565 115.699 21.9645 115.168 21.604C114.632 21.2481 114.101 20.8466 113.56 20.3904C113.015 19.9387 112.502 19.4368 112.003 18.8847C111.504 18.3372 111.051 17.7577 110.638 17.1555C109.919 18.4513 109.058 19.6375 108.051 20.7143C107.048 21.7911 105.875 22.7401 104.561 23.5659M116.977 36.9937C115.566 36.9937 114.27 36.8294 113.075 36.5055C111.884 36.1815 110.849 35.7344 109.974 35.1641C109.095 34.5938 108.408 33.9185 107.913 33.1428C107.41 32.3672 107.162 31.514 107.162 30.5832C107.162 29.6525 107.41 28.8768 107.913 28.1103C108.408 27.3438 109.1 26.6776 109.974 26.1027C110.849 25.5279 111.884 25.0853 113.075 24.7613C114.27 24.4374 115.566 24.2777 116.977 24.2777C118.387 24.2777 119.592 24.4328 120.792 24.7477C121.996 25.0625 123.05 25.505 123.961 26.0754C124.872 26.6457 125.596 27.3164 126.141 28.0784C126.681 28.8449 126.952 29.6798 126.952 30.5878C126.952 31.4957 126.681 32.3672 126.141 33.1474C125.596 33.9231 124.872 34.5983 123.961 35.1686C123.05 35.739 121.996 36.1861 120.792 36.51C119.592 36.834 118.319 36.9982 116.977 36.9982M116.977 27.8092C115.351 27.8092 114.082 28.0966 113.162 28.6806C112.241 29.2646 111.779 29.9353 111.779 30.6882C111.779 31.441 112.241 32.0615 113.162 32.6136C114.082 33.1657 115.356 33.4394 116.977 33.4394C117.733 33.4394 118.438 33.3664 119.084 33.2113C119.739 33.0607 120.302 32.86 120.774 32.6136C121.25 32.3672 121.621 32.0752 121.896 31.7421C122.166 31.4091 122.299 31.0577 122.299 30.6927C122.299 30.3277 122.166 29.9673 121.896 29.6251C121.621 29.2829 121.25 28.9726 120.774 28.7034C120.297 28.4342 119.734 28.2152 119.084 28.0555C118.433 27.8913 117.733 27.8137 116.977 27.8137M117.137 15.1616C116.945 15.1616 116.794 15.1206 116.679 15.0339C116.574 14.9472 116.519 14.7875 116.519 14.5502V12.1549C116.519 11.8537 116.578 11.6758 116.698 11.621C116.817 11.5663 116.963 11.5389 117.137 11.5389H122.239V6.31932C122.239 6.041 122.303 5.86762 122.436 5.79918C122.564 5.73531 122.725 5.70337 122.921 5.70337H126.141C126.42 5.70337 126.59 5.76268 126.645 5.88131C126.695 5.99994 126.727 6.14138 126.727 6.31932V22.8542C126.727 23.2648 126.517 23.4701 126.104 23.4701H122.857C122.445 23.4701 122.239 23.2739 122.239 22.8861V15.1525H117.137V15.1616Z" fill="white"/>
<path d="M159.747 23.5009H147.693V35.861C147.693 36.2945 147.482 36.5089 147.047 36.5089H143.828C143.374 36.5089 143.145 36.2945 143.145 35.861V23.5009H131.838C131.554 23.5009 131.375 23.4416 131.302 23.323C131.224 23.2044 131.188 23.0264 131.188 22.7892V20.558C131.188 20.3208 131.229 20.1428 131.302 20.0242C131.375 19.9056 131.558 19.8463 131.838 19.8463H150.844C151.146 18.5961 151.38 17.2182 151.545 15.7217C151.705 14.2206 151.787 12.6876 151.787 11.1089C151.787 10.9127 151.755 10.7393 151.691 10.5888C151.623 10.4382 151.43 10.3606 151.1 10.3606H135.735C135.557 10.3606 135.396 10.3333 135.245 10.2831C135.094 10.2283 135.016 10.0641 135.016 9.78121V7.22615C135.016 6.96608 135.089 6.81095 135.227 6.7562C135.369 6.70145 135.538 6.67407 135.735 6.67407H153.963C154.787 6.67407 155.369 6.85201 155.717 7.2079C156.06 7.56378 156.239 8.19798 156.239 9.10138C156.239 10.9127 156.147 12.7469 155.978 14.6038C155.799 16.4608 155.534 18.2037 155.163 19.8463H159.742C160.2 19.8463 160.425 20.0835 160.425 20.558V22.7892C160.425 23.2637 160.2 23.5009 159.742 23.5009" fill="white"/>
<path d="M75.8461 40.5352L73.8355 44.4773V47.2331H72.8142V44.4773L70.8037 40.5352H71.9166L73.3272 43.4826L74.7377 40.5352H75.8506H75.8461Z" fill="white"/>
<path d="M81.6393 44.9802C81.6393 45.6646 81.4103 46.2212 80.9523 46.6501C80.4943 47.079 79.9173 47.2935 79.2166 47.2935C78.5159 47.2935 77.948 47.079 77.4946 46.6501C77.0366 46.2212 76.8076 45.6646 76.8076 44.9802V40.5408H77.8289V44.9346C77.8289 45.3817 77.9526 45.733 78.1999 45.9931C78.4472 46.2532 78.7861 46.3855 79.2166 46.3855C79.6471 46.3855 79.9768 46.2532 80.2333 45.9931C80.4898 45.733 80.6134 45.3772 80.6134 44.9346V40.5408H81.6347V44.9802H81.6393Z" fill="white"/>
<path d="M87.6392 45.3264C87.6392 45.9332 87.4148 46.4169 86.9705 46.7682C86.5263 47.1195 85.9401 47.2929 85.2165 47.2929C84.6989 47.2929 84.2501 47.2244 83.8746 47.0921C83.4945 46.9552 83.151 46.7317 82.835 46.4077L83.5174 45.7416C83.7509 45.9743 84.0074 46.1385 84.2868 46.2343C84.5661 46.3347 84.8821 46.3804 85.2348 46.3804C85.6744 46.3804 86.0179 46.2891 86.2606 46.1112C86.5034 45.9332 86.6224 45.6777 86.6224 45.3538C86.6224 45.0481 86.5354 44.8154 86.3568 44.6557C86.2744 44.5827 86.1782 44.5234 86.0729 44.4777C85.9675 44.4321 85.8164 44.4002 85.6195 44.3728L84.8272 44.2587C84.2776 44.1812 83.8517 44.0032 83.554 43.7204C83.2242 43.4147 83.064 42.9858 83.064 42.4428C83.064 41.8542 83.2655 41.3797 83.6685 41.0147C84.0715 40.6543 84.6211 40.4763 85.3126 40.4763C86.1553 40.4763 86.8514 40.7318 87.401 41.2383L86.7507 41.8771C86.5538 41.69 86.3385 41.5577 86.1004 41.4756C85.8622 41.398 85.592 41.3569 85.2852 41.3569C84.9004 41.3569 84.5982 41.4573 84.3829 41.6535C84.1677 41.8497 84.0578 42.1006 84.0578 42.4018C84.0578 42.6664 84.1448 42.8717 84.3188 43.0268C84.4928 43.182 84.7402 43.2823 85.0699 43.3325L85.8347 43.4466C86.137 43.4877 86.3843 43.5515 86.5766 43.6291C86.769 43.7067 86.9385 43.8116 87.0896 43.9439C87.456 44.2633 87.6392 44.7196 87.6392 45.3173V45.3264Z" fill="white"/>
<path d="M93.4518 47.2389H89.1514V40.541H93.4518V41.4535H90.1727V43.4109H92.9709V44.3143H90.1727V46.3264H93.4518V47.2389Z" fill="white"/>
<path d="M99.583 43.8907C99.583 44.7028 99.5601 45.2275 99.5189 45.4739C99.4411 45.9073 99.2487 46.2769 98.9419 46.5826C98.461 47.0617 97.8702 47.2989 97.1649 47.2989C96.4596 47.2989 95.878 47.0617 95.3971 46.5826C95.0948 46.2815 94.9025 45.9165 94.82 45.483C94.7697 45.2138 94.7422 44.6846 94.7422 43.8907C94.7422 43.0968 94.7651 42.5812 94.82 42.312C94.9025 41.874 95.0948 41.4999 95.3971 41.1987C95.878 40.7197 96.4642 40.4824 97.1649 40.4824C97.5221 40.4824 97.8519 40.5417 98.1404 40.6603C98.4335 40.779 98.6991 40.9615 98.9419 41.1987C99.235 41.4953 99.4273 41.8603 99.5098 42.2983C99.5601 42.5766 99.5876 43.1059 99.5876 43.8907H99.583ZM98.5617 43.8907C98.5617 43.188 98.5388 42.7135 98.4885 42.4671C98.4427 42.2208 98.3327 42.0017 98.1633 41.8147C98.0442 41.6824 97.8977 41.582 97.7236 41.509C97.5496 41.436 97.3618 41.3995 97.1603 41.3995C96.9588 41.3995 96.7802 41.436 96.597 41.5135C96.4184 41.5911 96.2718 41.6915 96.1573 41.8147C95.9925 41.9926 95.8871 42.2116 95.8368 42.4763C95.7864 42.7454 95.7589 43.2154 95.7589 43.8907C95.7589 44.5659 95.7818 45.0678 95.8276 45.3188C95.8734 45.5651 95.9833 45.7841 96.1528 45.9712C96.2718 46.1035 96.4184 46.2039 96.5924 46.2769C96.7665 46.3499 96.9542 46.3864 97.1557 46.3864C97.3572 46.3864 97.5404 46.3453 97.7191 46.2723C97.8977 46.1993 98.0442 46.0944 98.1587 45.9712C98.3236 45.7978 98.4289 45.5743 98.4793 45.3096C98.5297 45.045 98.5572 44.5705 98.5572 43.8952L98.5617 43.8907Z" fill="white"/>
<path d="M106.303 47.2389H105.368L102.259 42.5257V47.2389H101.237V40.541H102.172L105.281 45.245V40.541H106.303V47.2389Z" fill="white"/>
<path d="M112.832 44.6481C112.832 45.0861 112.786 45.4511 112.695 45.7431C112.603 46.0351 112.448 46.2997 112.228 46.537C111.976 46.8016 111.696 46.9932 111.39 47.1164C111.083 47.2396 110.744 47.2989 110.373 47.2989C109.672 47.2989 109.086 47.0617 108.605 46.5826C108.303 46.2815 108.11 45.9165 108.028 45.483C107.978 45.2138 107.95 44.6846 107.95 43.8907C107.95 43.0968 107.973 42.5812 108.028 42.312C108.11 41.874 108.303 41.4999 108.605 41.1987C109.086 40.7197 109.672 40.4824 110.377 40.4824C111.083 40.4824 111.632 40.6832 112.072 41.0847C112.475 41.4588 112.727 41.9516 112.828 42.5675H111.797C111.71 42.1934 111.545 41.9059 111.307 41.7006C111.069 41.4953 110.758 41.3949 110.377 41.3949C110.181 41.3949 109.997 41.4314 109.823 41.509C109.649 41.5865 109.503 41.6869 109.384 41.8101C109.219 41.9881 109.113 42.2116 109.059 42.4945C109.004 42.7728 108.976 43.2382 108.976 43.8907C108.976 44.5431 109.004 45.0496 109.054 45.3096C109.104 45.5743 109.214 45.7978 109.384 45.9803C109.636 46.2495 109.965 46.3864 110.377 46.3864C110.831 46.3864 111.197 46.2267 111.477 45.9165C111.701 45.6518 111.816 45.3005 111.816 44.8625V44.4838H110.377V43.626H112.832V44.6481Z" fill="white"/>
<path d="M124.076 43.8398V44.2093C124.076 44.7797 124.044 45.2085 123.98 45.5005C123.884 45.9477 123.692 46.3173 123.394 46.6093C123.188 46.8146 122.931 46.9743 122.634 47.0792C122.336 47.1841 122.006 47.2389 121.658 47.2389H119.295V40.541H121.658C122.395 40.541 122.977 40.7509 123.398 41.1706C123.719 41.49 123.925 41.9052 124.012 42.4117C124.053 42.6672 124.076 43.1462 124.076 43.8398ZM123.055 43.8398C123.055 43.2831 123.041 42.8907 123.009 42.6717C122.959 42.3341 122.853 42.074 122.698 41.9007C122.423 41.5995 122.038 41.449 121.553 41.449H120.316V46.3264H121.553C122.038 46.3264 122.418 46.1758 122.698 45.8747C122.853 45.6967 122.959 45.4275 123.009 45.0671C123.041 44.8298 123.055 44.4192 123.055 43.8443V43.8398Z" fill="white"/>
<path d="M126.751 47.2389H125.729V40.541H126.751V47.2389Z" fill="white"/>
<path d="M132.855 45.3264C132.855 45.9332 132.631 46.4169 132.186 46.7682C131.742 47.1195 131.16 47.2929 130.432 47.2929C129.915 47.2929 129.471 47.2244 129.09 47.0921C128.71 46.9552 128.367 46.7317 128.051 46.4077L128.733 45.7416C128.967 45.9743 129.223 46.1385 129.503 46.2343C129.782 46.3347 130.098 46.3804 130.451 46.3804C130.89 46.3804 131.234 46.2891 131.476 46.1112C131.719 45.9332 131.838 45.6777 131.838 45.3538C131.838 45.0481 131.751 44.8154 131.573 44.6557C131.49 44.5827 131.394 44.5234 131.289 44.4777C131.183 44.4321 131.032 44.4002 130.835 44.3728L130.043 44.2587C129.493 44.1812 129.067 44.0032 128.765 43.7204C128.435 43.4147 128.275 42.9858 128.275 42.4428C128.275 41.8542 128.477 41.3797 128.88 41.0147C129.283 40.6543 129.832 40.4763 130.524 40.4763C131.367 40.4763 132.063 40.7318 132.612 41.2383L131.962 41.8771C131.765 41.69 131.55 41.5577 131.312 41.4756C131.073 41.398 130.803 41.3569 130.496 41.3569C130.112 41.3569 129.809 41.4573 129.594 41.6535C129.379 41.8497 129.269 42.1006 129.269 42.4018C129.269 42.6664 129.356 42.8717 129.53 43.0268C129.704 43.182 129.951 43.2823 130.281 43.3325L131.046 43.4466C131.348 43.4877 131.596 43.5515 131.788 43.6291C131.98 43.7067 132.15 43.8116 132.301 43.9439C132.667 44.2633 132.85 44.7196 132.85 45.3173L132.855 45.3264Z" fill="white"/>
<path d="M138.497 41.4477H136.647V47.2377H135.626V41.4477H133.775V40.5352H138.502V41.4477H138.497Z" fill="white"/>
<path d="M144.707 47.2389H143.516L142.106 44.4146H140.828V47.2389H139.807V40.541H142.417C143.049 40.541 143.553 40.7189 143.933 41.0794C144.313 41.4398 144.506 41.9143 144.506 42.4938C144.506 42.95 144.382 43.3379 144.135 43.6481C143.883 43.9584 143.562 44.1683 143.164 44.2732L144.712 47.2389H144.707ZM143.48 42.512C143.48 42.1835 143.379 41.928 143.168 41.7364C142.962 41.5493 142.683 41.4535 142.335 41.4535H140.823V43.5614H142.335C142.674 43.5614 142.948 43.4702 143.164 43.2831C143.374 43.0961 143.48 42.8405 143.48 42.512Z" fill="white"/>
<path d="M147.154 47.2387H146.133V40.5408H147.154V47.2387Z" fill="white"/>
<path d="M153.624 45.2366C153.51 45.8936 153.24 46.4047 152.814 46.7605C152.383 47.1164 151.856 47.2989 151.224 47.2989C150.524 47.2989 149.938 47.0617 149.457 46.5826C149.154 46.2815 148.962 45.9165 148.88 45.483C148.829 45.2138 148.802 44.6846 148.802 43.8907C148.802 43.0968 148.825 42.5812 148.88 42.312C148.962 41.874 149.154 41.4999 149.457 41.1987C149.938 40.7197 150.524 40.4824 151.224 40.4824C151.856 40.4824 152.383 40.6603 152.809 41.0208C153.235 41.3767 153.505 41.8877 153.624 42.5447H152.585C152.502 42.1888 152.351 41.9105 152.131 41.7189C151.893 41.5044 151.591 41.3995 151.224 41.3995C150.817 41.3995 150.483 41.5318 150.231 41.8056C150.066 41.9789 149.956 42.2116 149.905 42.4899C149.851 42.7728 149.823 43.2382 149.823 43.8907C149.823 44.5431 149.851 45.0496 149.901 45.3096C149.951 45.5743 150.061 45.7978 150.231 45.9803C150.483 46.2495 150.812 46.3864 151.224 46.3864C151.591 46.3864 151.889 46.2815 152.122 46.0762C152.356 45.8708 152.511 45.588 152.594 45.2412H153.624V45.2366Z" fill="white"/>
<path d="M159.257 41.4475H157.407V47.2374H156.385V41.4475H154.535V40.5349H159.262V41.4475H159.257Z" fill="white"/>
<path d="M59.9586 26.4953C59.9586 22.5486 54.5453 19.0765 46.3566 17.0689C48.7061 8.99312 48.3992 2.58266 44.969 0.611612C41.5387 -1.36399 35.8185 1.56976 29.9793 7.63346C24.1401 1.56976 18.4199 -1.36399 14.9851 0.611612C11.5548 2.58266 11.248 8.99312 13.5928 17.0689C5.40415 19.0765 0 22.5486 0 26.4953C0 30.4419 5.40415 33.9232 13.5928 35.9307C11.248 44.002 11.5548 50.4124 14.9851 52.3835C18.4199 54.3637 24.1355 51.4253 29.9793 45.3571C35.8185 51.4208 41.5387 54.3637 44.969 52.3835C48.3992 50.4124 48.7061 44.002 46.3566 35.9307C54.5453 33.9186 59.9586 30.4465 59.9586 26.4953Z" fill="white"/>
<path d="M59.9586 26.4952C59.9586 22.5485 54.5453 19.0764 46.3566 17.0688C45.4956 20.0345 44.2772 23.2187 42.7246 26.5037C44.2772 29.7797 45.4954 32.9644 46.3564 35.9346C54.5451 33.9225 59.9584 30.4504 59.9584 26.4992L59.9586 26.4952Z" fill="#056FB8"/>
<path d="M13.5928 17.0702C5.40411 19.0778 0 22.5507 0 26.4973C0 30.444 5.40415 33.9252 13.5928 35.9328C14.4492 32.9671 15.6766 29.7824 17.2338 26.5019C15.6766 23.2214 14.4538 20.0321 13.5928 17.0664V17.0702Z" fill="#056FB8"/>
<path d="M13.5928 35.9297C11.2479 44.0009 11.5548 50.4114 14.985 52.3824C18.4199 54.3626 24.1354 51.4243 29.9793 45.356C27.8313 43.134 25.6697 40.4877 23.6042 37.5038C19.9816 37.2072 16.6017 36.6688 13.5928 35.9297Z" fill="#056FB8"/>
<path d="M46.3566 17.0689C48.7061 8.99312 48.3992 2.58266 44.969 0.611612C41.5387 -1.36399 35.8185 1.56976 29.9793 7.63346C32.1181 9.86457 34.2799 12.5063 36.35 15.4903C39.9772 15.7823 43.3569 16.3252 46.3566 17.0689Z" fill="#056FB8"/>
<path d="M29.9793 7.63346C24.1401 1.56976 18.4199 -1.36399 14.9851 0.611612C11.5548 2.58266 11.248 8.99312 13.5928 17.0689C16.6017 16.3252 19.9816 15.7868 23.6042 15.4903C25.6697 12.5018 27.8268 9.86001 29.9793 7.63346Z" fill="#056FB8"/>
<path d="M29.9795 45.362C35.8187 51.4257 41.5389 54.3686 44.9691 52.3884C48.3994 50.4174 48.7058 44.0061 46.3564 35.9348C43.3566 36.6694 39.9726 37.2132 36.35 37.5097C34.2799 40.4937 32.1274 43.14 29.9795 45.362Z" fill="#056FB8"/>
<path d="M36.1714 15.7939C34.1746 15.6388 32.1045 15.543 29.9795 15.543C27.8545 15.543 25.7753 15.6342 23.7831 15.7939C22.6381 17.441 21.5298 19.1839 20.4627 21.0227C19.4002 22.8614 18.4385 24.691 17.582 26.5023C18.4385 28.3046 19.4002 30.1387 20.4627 31.9729C21.5298 33.8116 22.6335 35.5546 23.7831 37.1971C25.7753 37.3613 27.8499 37.4526 29.9795 37.4526C32.1091 37.4526 34.1792 37.3613 36.1714 37.1971C37.3118 35.5546 38.4247 33.8116 39.4917 31.9729C40.5543 30.1387 41.5114 28.3046 42.3724 26.5023C41.516 24.691 40.5543 22.8614 39.4917 21.0227C38.4247 19.1885 37.3118 17.441 36.1714 15.7939Z" fill="#E52E20"/>
<path d="M27.0173 18.8857C26.9852 18.9222 24.3061 22.7502 26.0006 26.1129C28.4874 31.0268 22.781 34.2617 22.726 34.2891C22.6848 34.3119 22.6344 34.321 22.5841 34.321C22.5337 34.321 22.4879 34.3119 22.4512 34.2891C22.3734 34.248 22.3459 34.1659 22.4009 34.102C22.4283 34.0609 25.625 30.0504 23.7153 26.8885C21.1368 22.6179 26.6189 18.7488 26.6738 18.7169C26.7517 18.6667 26.8662 18.6576 26.9532 18.6941C27.0402 18.7351 27.0723 18.8173 27.0219 18.8811L27.0173 18.8857Z" fill="white"/>
<path d="M32.2919 18.8854C32.2644 18.9219 29.5806 22.75 31.2798 26.1126C33.7574 31.0265 28.0602 34.2614 28.0006 34.2888C27.9594 34.3116 27.9044 34.3207 27.8586 34.3207C27.8083 34.3207 27.7625 34.3116 27.7258 34.2888C27.648 34.2477 27.6205 34.1656 27.6755 34.1017C27.7075 34.0607 30.895 30.0501 28.9899 26.8882C26.4114 22.6176 31.8889 18.7486 31.9484 18.7166C32.0217 18.6664 32.1408 18.6573 32.2232 18.6938C32.3102 18.7349 32.3377 18.817 32.2919 18.8809V18.8854Z" fill="white"/>
<path d="M37.5683 18.8857C37.5454 18.9222 34.8525 22.7502 36.5562 26.1129C39.0339 31.0268 33.3229 34.2617 33.2771 34.2891C33.2359 34.3119 33.1855 34.321 33.1305 34.321C33.0893 34.321 33.0389 34.3119 32.9977 34.2891C32.9198 34.248 32.9015 34.1659 32.9565 34.102C32.9885 34.0609 36.1807 30.0504 34.2663 26.8885C31.6833 22.6179 37.1653 18.7488 37.2203 18.7169C37.2981 18.6667 37.4172 18.6576 37.5042 18.6941C37.5912 18.7351 37.6141 18.8173 37.5683 18.8811V18.8857Z" fill="white"/>
</g>
<defs>
<clipPath id="clip0_2086_31">
<rect width="161" height="54" fill="white"/>
</clipPath>
</defs>
</svg>
