<svg width="28" height="25" viewBox="0 0 28 25" fill="none" xmlns="http://www.w3.org/2000/svg">
<g clip-path="url(#clip0_2084_29)">
<path fill-rule="evenodd" clip-rule="evenodd" d="M23.1265 0.329834H5.02741C2.46572 0.329834 0.379395 2.42496 0.379395 4.97785V16.2282C0.379395 18.7899 2.47452 20.8762 5.02741 20.8762H11.4184L12.5188 22.7777L13.6016 24.6527C13.7953 24.996 14.2882 24.996 14.4907 24.6527L15.5735 22.7777L16.6739 20.8762H23.1353C25.697 20.8762 27.7833 18.7811 27.7833 16.2282V4.98666C27.7833 2.42496 25.6882 0.329834 23.1265 0.329834ZM15.3461 8.57058C13.9464 8.57058 12.8108 9.68857 12.8108 11.0707C12.8108 12.4527 13.9464 13.5707 15.3461 13.5707C16.7458 13.5707 17.8814 12.4527 17.8814 11.0707C17.8814 9.68857 16.7546 8.57058 15.3461 8.57058ZM15.3461 12.2679C14.6771 12.2679 14.1313 11.7309 14.1313 11.0707C14.1313 10.4104 14.6771 9.87344 15.3461 9.87344C16.0152 9.87344 16.561 10.4104 16.561 11.0707C16.561 11.7309 16.024 12.2679 15.3461 12.2679ZM5.87348 9.14288C6.26962 8.78195 6.7802 8.57068 7.32599 8.57068C8.59363 8.57068 9.60598 9.69747 9.60598 11.0796C9.60598 12.4616 8.58483 13.5796 7.32599 13.5796C6.7714 13.5796 6.26962 13.3596 5.87348 13.0074V13.4564H4.46499V7.07415H5.87348V9.14288ZM5.88229 11.5637C6.07595 12.0127 6.52491 12.3208 7.04429 12.3208C7.74854 12.3208 8.31193 11.7662 8.31193 11.0708C8.31193 10.3753 7.74854 9.82071 7.04429 9.82071C6.52491 9.82071 6.07595 10.1288 5.88229 10.5778C5.81186 10.7274 5.77665 10.8947 5.77665 11.0708C5.77665 11.2468 5.82066 11.4141 5.88229 11.5637ZM22.2728 8.67704V9.07318C21.8767 8.76507 21.3837 8.58021 20.8555 8.58021C19.5615 8.58021 18.5139 9.66298 18.5139 10.9922C18.5139 12.3215 19.5615 13.4043 20.8555 13.4043C21.3925 13.4043 21.8855 13.2194 22.2728 12.9113V13.5803C22.2728 13.5803 22.1319 14.2406 21.146 14.2406V15.4818C21.146 15.4818 22.2112 15.6051 23.1619 14.6543C23.1619 14.6543 23.6021 14.1878 23.6989 13.5715V8.67704H22.2728ZM21.1196 12.2159C20.4065 12.2159 19.8343 11.6613 19.8343 10.9834C19.8343 10.3056 20.4154 9.75101 21.1196 9.75101C21.6214 9.75101 22.0615 10.0327 22.2728 10.4377C22.3608 10.6049 22.4048 10.7898 22.4048 10.9834C22.4048 11.1771 22.352 11.3708 22.2728 11.5292C22.0615 11.943 21.6214 12.2159 21.1196 12.2159ZM9.76385 8.22808V6.95164C9.76385 6.95164 10.697 6.8284 11.5245 7.80554C11.5245 7.80554 11.903 8.2809 11.991 8.91472V8.94993V13.4571H10.5385V8.94993C10.4153 8.31612 9.76385 8.22808 9.76385 8.22808Z" fill="white"/>
</g>
<defs>
<clipPath id="clip0_2084_29">
<rect width="28" height="25" fill="white"/>
</clipPath>
</defs>
</svg>
